<svg width="53" height="56" viewBox="0 0 53 56" fill="none" xmlns="http://www.w3.org/2000/svg">
<path d="M6.29238 41.8875H6.25882C4.88289 41.8875 3.69153 42.7143 3.18814 43.9124C1.19136 42.2419 0 39.7613 0 37.1121V18.8878C0 15.7154 1.69475 12.7793 4.4634 11.21L20.3202 2.09784C23.0721 0.511657 26.4616 0.511657 29.2302 2.09784L41.0431 8.88132C41.6304 7.88574 42.7043 7.21076 43.9292 7.21076C44.1809 7.21076 44.4158 7.24451 44.634 7.29513L49.3323 4.15651L52.4365 5.94519L47.1006 9.50567C47.218 9.84316 47.2852 10.1975 47.2852 10.5688C47.2852 11.21 47.1006 11.8006 46.7818 12.3068C46.4965 12.0874 46.2113 11.8681 45.8924 11.6993L45.3555 11.3956C45.3891 11.4125 45.4226 11.4293 45.4394 11.4462L41.0096 8.8982C40.7243 9.38755 40.5397 9.96128 40.5397 10.5688C40.5397 11.2269 40.7411 11.8175 41.0599 12.3406L34.4655 25.8738C34.2977 25.8569 34.1299 25.8231 33.9621 25.8231C32.6701 25.8231 31.5626 26.5487 30.9921 27.6287L19.3805 25.5025C18.8939 24.2538 17.6858 23.3595 16.2595 23.3595C14.397 23.3595 12.9036 24.8613 12.9036 26.7006C12.9036 27.1225 12.9875 27.5274 13.1217 27.8818L6.29238 41.8875Z" fill="url(#paint0_linear_677_15883)"/>
<path d="M43.8955 13.9266C45.0701 13.9266 46.0769 13.336 46.681 12.4248C48.4596 14.0785 49.5 16.4071 49.5 18.8877V37.1119C49.5 40.2843 47.8052 43.2036 45.0366 44.7898L29.1798 53.9019C26.4279 55.4881 23.0384 55.4881 20.2697 53.9019L8.84277 47.3378C9.3126 46.764 9.59786 46.0385 9.59786 45.2454C9.59786 44.5873 9.3965 43.9798 9.07769 43.4736L15.6385 30.0247C15.8231 30.0585 16.0245 30.0922 16.2258 30.0922C17.3501 30.0922 18.3233 29.5522 18.9274 28.7085L31.0423 30.9191C31.6296 31.8809 32.6867 32.539 33.9116 32.539C35.7742 32.539 37.2676 31.0372 37.2676 29.1979C37.2676 28.7423 37.1669 28.3035 37.0159 27.9154L43.8284 13.9266H43.8955Z" fill="url(#paint1_linear_677_15883)"/>
<path d="M2.88623 45.2455C2.88623 44.8068 2.97013 44.4018 3.12115 44.0137C3.17149 44.0474 3.20504 44.0812 3.25538 44.098C3.37284 44.1824 3.47352 44.2499 3.59098 44.3174L8.84302 47.3379C8.22217 48.0973 7.29929 48.5866 6.24217 48.5866C4.3964 48.6035 2.88623 47.1017 2.88623 45.2455Z" fill="url(#paint2_linear_677_15883)"/>
<path d="M3.17143 43.9114C3.15465 43.9451 3.13787 43.9789 3.12109 44.0126C3.27211 44.1139 3.42313 44.232 3.59092 44.3164L8.84297 47.3369C8.84297 47.3369 8.84297 47.3369 8.84297 47.32L4.44669 44.7888C3.99364 44.5357 3.57415 44.232 3.17143 43.9114Z" fill="url(#paint3_linear_677_15883)"/>
<path d="M46.748 12.323C46.4627 12.1036 46.1774 11.8843 45.8586 11.7155L45.4224 11.4624C45.8754 11.7493 46.2949 12.0699 46.6808 12.4411C46.7144 12.3905 46.7312 12.3567 46.748 12.323Z" fill="url(#paint4_linear_677_15883)"/>
<defs>
<linearGradient id="paint0_linear_677_15883" x1="26.1994" y1="9.42758" x2="26.1994" y2="48.5969" gradientUnits="userSpaceOnUse">
<stop stop-color="#B821FF"/>
<stop offset="1" stop-color="#4000C7"/>
</linearGradient>
<linearGradient id="paint1_linear_677_15883" x1="29.1859" y1="9.42745" x2="29.1859" y2="48.5968" gradientUnits="userSpaceOnUse">
<stop stop-color="#B821FF"/>
<stop offset="1" stop-color="#4000C7"/>
</linearGradient>
<linearGradient id="paint2_linear_677_15883" x1="5.87041" y1="9.4276" x2="5.87041" y2="48.5969" gradientUnits="userSpaceOnUse">
<stop stop-color="#B821FF"/>
<stop offset="1" stop-color="#4000C7"/>
</linearGradient>
<linearGradient id="paint3_linear_677_15883" x1="5.99881" y1="43.911" x2="5.99881" y2="47.3472" gradientUnits="userSpaceOnUse">
<stop stop-color="#B821FF"/>
<stop offset="1" stop-color="#4000C7"/>
</linearGradient>
<linearGradient id="paint4_linear_677_15883" x1="46.0976" y1="11.4516" x2="46.0976" y2="12.4271" gradientUnits="userSpaceOnUse">
<stop stop-color="#B821FF"/>
<stop offset="1" stop-color="#4000C7"/>
</linearGradient>
</defs>
</svg>
