<svg width="178" height="56" viewBox="0 0 178 56" fill="none" xmlns="http://www.w3.org/2000/svg">
<path d="M10.2727 11.653C9.89706 10.9827 9.31645 10.45 8.53092 10.0719C7.74538 9.69378 6.80617 9.48755 5.69617 9.48755H0.436523V23.8893H3.30543V18.3554H5.69617C6.87447 18.3554 7.84785 18.1492 8.59923 17.7367C9.38476 17.3243 9.94829 16.7743 10.3069 16.1041C10.6826 15.4338 10.8534 14.712 10.8534 13.9387C10.8704 13.0794 10.6655 12.3232 10.2727 11.653ZM7.33554 15.4854C6.95985 15.8463 6.36217 16.0182 5.57664 16.0182H3.30543V11.842H5.57664C7.13062 11.842 7.91616 12.5466 7.91616 13.9387C7.91616 14.5917 7.72831 15.1073 7.33554 15.4854Z" fill="black"/>
<path d="M32.2678 12.2886C33.6169 12.2886 34.7098 12.7182 35.5466 13.5947C36.3833 14.454 36.7932 15.6398 36.7932 17.1865V23.889H33.9243V17.5646C33.9243 16.6538 33.7023 15.9663 33.2412 15.4851C32.7972 14.9868 32.1824 14.7461 31.3969 14.7461C30.6114 14.7461 29.9795 14.9868 29.5185 15.4851C29.0745 15.9663 28.8354 16.6538 28.8354 17.5646V23.8718H25.9665V12.4604H28.8354V13.8869C29.2111 13.3885 29.7063 13.0104 30.2869 12.7354C30.9017 12.4261 31.5506 12.2886 32.2678 12.2886Z" fill="black"/>
<path d="M59.3173 23.8716L55.4579 19.008V23.8716H52.5891V8.6106H55.4579V17.3066L59.2661 12.4602H63.0059L58.0024 18.1831L63.04 23.8716H59.3173Z" fill="black"/>
<path d="M81.893 20.9844H80.4927V8.6106H77.6238V20.9844C77.6238 22.5827 78.9045 23.8716 80.4927 23.8716H81.893V20.9844Z" fill="black"/>
<path d="M20.6897 14.0761C20.3141 13.5605 19.8018 13.1137 19.1528 12.77C18.521 12.4263 17.7867 12.2544 16.9329 12.2544C15.9595 12.2544 15.0886 12.495 14.286 12.9762C13.5004 13.4574 12.8857 14.1448 12.4246 15.0385C11.9806 15.9322 11.7415 16.9633 11.7415 18.1148C11.7415 19.2834 11.9635 20.3146 12.4246 21.2254C12.8857 22.1191 13.5175 22.8065 14.286 23.3049C15.0715 23.8033 15.9595 24.0439 16.9158 24.0439C17.7696 24.0439 18.5039 23.872 19.1528 23.5283C19.8018 23.1674 20.3141 22.7206 20.6897 22.1878V23.8548H23.5757V12.4606H20.6897V14.0761ZM20.2799 19.988C20.0067 20.4864 19.631 20.8645 19.1699 21.1395C18.7088 21.3973 18.2136 21.5347 17.6672 21.5347C17.1549 21.5347 16.6596 21.3973 16.1986 21.1223C15.7546 20.8473 15.3789 20.452 15.0886 19.9536C14.8153 19.4381 14.6787 18.8194 14.6787 18.132C14.6787 17.4445 14.8153 16.8602 15.0886 16.3618C15.3789 15.8462 15.7375 15.4681 16.1986 15.2104C16.6426 14.9526 17.1378 14.8151 17.6672 14.8151C18.1965 14.8151 18.6918 14.9526 19.1699 15.2275C19.631 15.4853 20.0067 15.8806 20.2799 16.379C20.5531 16.8774 20.6897 17.4789 20.6897 18.1663C20.6897 18.8709 20.5531 19.4724 20.2799 19.988Z" fill="black"/>
<path d="M72.347 14.0761C71.9714 13.5605 71.459 13.1137 70.8101 12.77C70.1783 12.4263 69.444 12.2544 68.5901 12.2544C67.6168 12.2544 66.7459 12.495 65.9432 12.9762C65.1577 13.4574 64.5429 14.1448 64.0819 15.0385C63.6379 15.9322 63.3988 16.9633 63.3988 18.1148C63.3988 19.2834 63.6208 20.3146 64.0819 21.2254C64.5429 22.1191 65.1748 22.8065 65.9432 23.3049C66.7288 23.8033 67.6168 24.0439 68.5731 24.0439C69.4269 24.0439 70.1612 23.872 70.8101 23.5283C71.459 23.1674 71.9714 22.7206 72.347 22.1878V23.8548H75.233V12.4606H72.347V14.0761ZM71.9372 19.988C71.664 20.4864 71.2883 20.8645 70.8272 21.1395C70.3661 21.3973 69.8709 21.5347 69.3244 21.5347C68.8121 21.5347 68.3169 21.3973 67.8558 21.1223C67.4119 20.8473 67.0362 20.452 66.7459 19.9536C66.4726 19.4381 66.336 18.8194 66.336 18.132C66.336 17.4445 66.4726 16.8602 66.7459 16.3618C67.0362 15.8462 67.3948 15.4681 67.8558 15.2104C68.2998 14.9526 68.7951 14.8151 69.3244 14.8151C69.8538 14.8151 70.3491 14.9526 70.8272 15.2275C71.2883 15.4853 71.664 15.8806 71.9372 16.379C72.2104 16.8774 72.347 17.4789 72.347 18.1663C72.347 18.8709 72.2104 19.4724 71.9372 19.988Z" fill="black"/>
<path d="M91.6266 12.46V14.0927C91.2509 13.5771 90.7386 13.1303 90.0896 12.7866C89.4578 12.4429 88.7235 12.271 87.8697 12.271C86.8963 12.271 86.0254 12.5116 85.2228 12.9928C84.4372 13.474 83.8225 14.1614 83.3614 15.0551C82.9174 15.9488 82.6783 16.9799 82.6783 18.1314C82.6783 19.3 82.9003 20.3312 83.3614 21.242C83.8225 22.1357 84.4543 22.8231 85.2228 23.3215C86.0083 23.8199 86.8963 24.0605 87.8526 24.0605C88.7064 24.0605 89.4407 23.8886 90.0896 23.5449C90.7386 23.184 91.2509 22.7372 91.6266 22.2044V23.8714H94.5125V12.46H91.6266ZM91.2167 19.9874C90.9435 20.4858 90.5678 20.8639 90.1067 21.1389C89.6456 21.3967 89.1504 21.5342 88.604 21.5342C88.0917 21.5342 87.5964 21.3967 87.1353 21.1217C86.6914 20.8467 86.3157 20.4515 86.0254 19.9531C85.7521 19.4375 85.6155 18.8188 85.6155 18.1314C85.6155 17.4439 85.7521 16.8596 86.0254 16.3612C86.3157 15.8456 86.6743 15.4676 87.1353 15.2098C87.5793 14.952 88.0746 14.8145 88.604 14.8145C89.1333 14.8145 89.6286 14.952 90.1067 15.227C90.5678 15.4847 90.9435 15.88 91.2167 16.3784C91.4899 16.8768 91.6266 17.4783 91.6266 18.1657C91.6266 18.8704 91.4899 19.4719 91.2167 19.9874Z" fill="black"/>
<path d="M103.205 12.2886C104.554 12.2886 105.647 12.7182 106.483 13.5947C107.32 14.454 107.73 15.6398 107.73 17.1865V23.889H104.861V17.5646C104.861 16.6538 104.639 15.9663 104.178 15.4851C103.734 14.9868 103.119 14.7461 102.334 14.7461C101.548 14.7461 100.916 14.9868 100.455 15.4851C100.011 15.9663 99.7722 16.6538 99.7722 17.5646V23.8718H96.9033V12.4604H99.7722V13.8869C100.148 13.3885 100.643 13.0104 101.224 12.7354C101.838 12.4261 102.487 12.2886 103.205 12.2886Z" fill="black"/>
<path d="M145.624 14.8328V20.3666C145.624 20.7447 145.709 21.0369 145.897 21.2087C146.085 21.3806 146.409 21.4493 146.836 21.4493H149.876V23.8897H146.358C143.933 23.8897 142.738 22.7039 142.738 20.3495V14.85H141.389V12.4612H142.738V9.62549H145.624V12.444H148.168V14.8156H145.624V14.8328Z" fill="black"/>
<path d="M123.475 10.3636C122.348 9.77932 121.016 9.46997 119.513 9.46997H114.51V23.8717H119.513C121.016 23.8717 122.331 23.5795 123.475 22.978C124.619 22.3937 125.507 21.5516 126.122 20.4861C126.754 19.4034 127.061 18.1316 127.061 16.688C127.061 15.2444 126.754 13.9727 126.122 12.89C125.507 11.8072 124.619 10.9651 123.475 10.3636ZM122.894 20.1939C122.075 21.0189 120.913 21.4313 119.411 21.4313H117.379V11.9104H119.411C120.913 11.9104 122.075 12.34 122.894 13.1821C123.714 14.0242 124.124 15.1929 124.124 16.688C124.124 18.2004 123.714 19.369 122.894 20.1939Z" fill="black"/>
<path d="M137 14.0751C136.624 13.5595 136.112 13.1127 135.463 12.769C134.831 12.4253 134.097 12.2534 133.243 12.2534C132.27 12.2534 131.399 12.494 130.596 12.9752C129.81 13.4564 129.196 14.1439 128.735 15.0375C128.291 15.9312 128.052 16.9623 128.052 18.1138C128.052 19.2824 128.274 20.3136 128.735 21.2244C129.196 22.1181 129.828 22.8055 130.596 23.3039C131.382 23.8023 132.27 24.0429 133.226 24.0429C134.08 24.0429 134.814 23.871 135.463 23.5273C136.112 23.1664 136.624 22.7196 137 22.1868V23.8539H139.886V12.4596H137V14.0751ZM136.59 19.987C136.317 20.4854 135.941 20.8635 135.48 21.1385C135.019 21.3963 134.524 21.5338 133.977 21.5338C133.465 21.5338 132.97 21.3963 132.509 21.1213C132.065 20.8463 131.689 20.4511 131.399 19.9527C131.125 19.4371 130.989 18.8184 130.989 18.131C130.989 17.4435 131.125 16.8592 131.399 16.3608C131.689 15.8453 132.048 15.4672 132.509 15.2094C132.953 14.9516 133.448 14.8141 133.977 14.8141C134.507 14.8141 135.002 14.9516 135.48 15.2266C135.941 15.4844 136.317 15.8796 136.59 16.378C136.863 16.8764 137 17.4779 137 18.1653C137 18.87 136.863 19.4715 136.59 19.987Z" fill="black"/>
<path d="M159.541 12.46V14.0927C159.165 13.5771 158.653 13.1303 158.004 12.7866C157.372 12.4429 156.638 12.271 155.784 12.271C154.811 12.271 153.94 12.5116 153.137 12.9928C152.352 13.474 151.737 14.1614 151.276 15.0551C150.832 15.9488 150.593 16.9799 150.593 18.1314C150.593 19.3 150.815 20.3312 151.276 21.242C151.737 22.1357 152.369 22.8231 153.137 23.3215C153.923 23.8199 154.811 24.0605 155.767 24.0605C156.621 24.0605 157.355 23.8886 158.004 23.5449C158.653 23.184 159.165 22.7372 159.541 22.2044V23.8714H162.427V12.46H159.541ZM159.131 19.9874C158.858 20.4858 158.482 20.8639 158.021 21.1389C157.56 21.3967 157.065 21.5342 156.519 21.5342C156.006 21.5342 155.511 21.3967 155.05 21.1217C154.606 20.8467 154.23 20.4515 153.94 19.9531C153.667 19.4375 153.53 18.8188 153.53 18.1314C153.53 17.4439 153.667 16.8596 153.94 16.3612C154.23 15.8456 154.589 15.4676 155.05 15.2098C155.494 14.952 155.989 14.8145 156.519 14.8145C157.048 14.8145 157.543 14.952 158.021 15.227C158.482 15.4847 158.858 15.88 159.131 16.3784C159.405 16.8768 159.541 17.4783 159.541 18.1657C159.541 18.8704 159.405 19.4719 159.131 19.9874Z" fill="black"/>
<path d="M47.3125 12.46V14.0927C46.9368 13.5599 46.4415 13.1303 45.7926 12.7866C45.1437 12.4429 44.4094 12.271 43.5556 12.271C42.5822 12.271 41.7113 12.5116 40.9087 12.9928C40.1231 13.474 39.5084 14.1614 39.0473 15.0551C38.6033 15.9488 38.3642 16.9799 38.3642 18.1314C38.3642 19.3 38.5862 20.3312 39.0473 21.242C39.5084 22.1357 40.1402 22.8231 40.9257 23.3215C41.7113 23.8199 42.5993 24.0605 43.5556 24.0605C44.3923 24.0605 45.1266 23.8886 45.7756 23.5277C46.4245 23.1668 46.9368 22.72 47.3125 22.1872V23.9574C47.3125 24.9713 47.0563 25.7275 46.5269 26.2259C46.0146 26.7415 45.3316 26.9821 44.4948 26.9821C44.4265 26.9821 44.3582 26.9821 44.3069 26.9821V29.4912C44.3923 29.4912 44.4948 29.4912 44.5802 29.4912C45.7756 29.4912 46.8002 29.2506 47.654 28.7522C48.5078 28.271 49.1397 27.6179 49.5666 26.7758C49.9935 25.9509 50.1984 25.0057 50.1984 23.9574V12.4429H47.3125V12.46ZM46.9026 19.9874C46.6294 20.4858 46.2537 20.8639 45.7926 21.1389C45.3316 21.3967 44.8363 21.5342 44.2899 21.5342C43.7776 21.5342 43.2823 21.3967 42.8213 21.1217C42.3773 20.8467 42.0016 20.4515 41.7113 19.9531C41.438 19.4375 41.3014 18.8188 41.3014 18.1314C41.3014 17.4439 41.438 16.8596 41.7113 16.3612C42.0016 15.8456 42.3602 15.4676 42.8213 15.2098C43.2653 14.952 43.7605 14.8145 44.2899 14.8145C44.8193 14.8145 45.3145 14.952 45.7926 15.227C46.2537 15.4847 46.6294 15.88 46.9026 16.3784C47.1758 16.8768 47.3125 17.4783 47.3125 18.1657C47.3125 18.8704 47.1758 19.4719 46.9026 19.9874Z" fill="black"/>
<path d="M31.0211 36.1692C32.3701 36.1692 33.463 36.5988 34.2998 37.4753C35.1366 38.3346 35.5464 39.5204 35.5464 41.0672V47.7696H32.6775V41.4624C32.6775 40.5516 32.4555 39.8641 31.9944 39.3829C31.5504 38.8846 30.9357 38.6439 30.1501 38.6439C29.3646 38.6439 28.7328 38.8846 28.2717 39.3829C27.8277 39.8641 27.5886 40.5516 27.5886 41.4624V47.7696H24.7197V36.341H27.5886V37.7675C27.9643 37.2691 28.4595 36.891 29.0402 36.616C29.6549 36.3067 30.3038 36.1692 31.0211 36.1692Z" fill="black"/>
<path d="M82.4739 47.7522L78.6145 42.8886V47.7522H75.7627V32.4912H78.6145V41.1872L82.4397 36.3408H86.1625L81.159 42.0637L86.2137 47.7522H82.4739Z" fill="black"/>
<path d="M8.53092 33.9349C7.74538 33.5568 6.80616 33.3506 5.69617 33.3506H0.436523V47.7523H3.30543V42.2185H5.69617C6.87447 42.2185 7.84785 42.0122 8.59923 41.5998C9.38476 41.1873 9.94829 40.6374 10.3069 39.9671C10.6826 39.2969 10.8534 38.5751 10.8534 37.8017C10.8534 36.9424 10.6484 36.1862 10.2557 35.516C9.89706 34.8629 9.31645 34.3302 8.53092 33.9349ZM7.33554 39.3656C6.95985 39.7265 6.36217 39.8984 5.57663 39.8984H3.30543V35.705H5.57663C7.13062 35.705 7.91616 36.4097 7.91616 37.8017C7.91616 38.472 7.72831 38.9875 7.33554 39.3656Z" fill="black"/>
<path d="M46.0483 37.9219C45.6556 37.3892 45.1262 36.9595 44.4431 36.6502C43.7771 36.3237 43.077 36.1518 42.3256 36.1518C41.3522 36.1518 40.4813 36.3924 39.6787 36.8736C38.8932 37.3548 38.2613 38.0422 37.8003 38.9359C37.3563 39.8296 37.1172 40.8607 37.1172 42.0122C37.1172 43.1808 37.3392 44.212 37.8003 45.1228C38.2613 46.0165 38.8932 46.7039 39.6787 47.2023C40.4642 47.7007 41.3522 47.9413 42.3085 47.9413C43.1624 47.9413 43.8967 47.7694 44.5456 47.4257C45.1945 47.082 45.6897 46.6352 46.0483 46.068V47.7522H48.9514V32.4912H46.0483V37.9219ZM45.6556 43.8682C45.3823 44.3666 45.0067 44.7447 44.5456 45.0197C44.0845 45.2775 43.5893 45.415 43.0428 45.415C42.5305 45.415 42.0353 45.2775 41.5742 45.0025C41.1302 44.7275 40.7545 44.3323 40.4642 43.8339C40.191 43.3183 40.0544 42.6996 40.0544 42.0122C40.0544 41.3247 40.191 40.7404 40.4642 40.242C40.7545 39.7264 41.1131 39.3484 41.5742 39.0906C42.0182 38.8328 42.5135 38.6953 43.0428 38.6953C43.5722 38.6953 44.0674 38.8328 44.5456 39.1078C45.0067 39.3655 45.3823 39.7608 45.6556 40.2592C45.9288 40.7576 46.0654 41.3591 46.0654 42.0465C46.0654 42.7512 45.9288 43.3527 45.6556 43.8682Z" fill="black"/>
<path d="M65.1577 37.9219C64.765 37.3892 64.2356 36.9595 63.5525 36.6502C62.8865 36.3237 62.1864 36.1518 61.435 36.1518C60.4616 36.1518 59.5907 36.3924 58.7881 36.8736C58.0025 37.3548 57.3707 38.0422 56.9096 38.9359C56.4656 39.8296 56.2266 40.8607 56.2266 42.0122C56.2266 43.1808 56.4486 44.212 56.9096 45.1228C57.3707 46.0165 58.0025 46.7039 58.7881 47.2023C59.5736 47.7007 60.4616 47.9413 61.4179 47.9413C62.2717 47.9413 63.006 47.7694 63.655 47.4257C64.3039 47.082 64.7991 46.6352 65.1577 46.068V47.7522H68.0608V32.4912H65.1577V37.9219ZM64.765 43.8682C64.4917 44.3666 64.116 44.7447 63.655 45.0197C63.1939 45.2775 62.6987 45.415 62.1522 45.415C61.6399 45.415 61.1447 45.2775 60.6836 45.0025C60.2396 44.7275 59.8639 44.3323 59.5736 43.8339C59.3004 43.3183 59.1638 42.6996 59.1638 42.0122C59.1638 41.3247 59.3004 40.7404 59.5736 40.242C59.8639 39.7264 60.2225 39.3484 60.6836 39.0906C61.1276 38.8328 61.6228 38.6953 62.1522 38.6953C62.6816 38.6953 63.1768 38.8328 63.655 39.1078C64.116 39.3655 64.4917 39.7608 64.765 40.2592C65.0382 40.7576 65.1748 41.3591 65.1748 42.0465C65.1748 42.7512 65.0382 43.3527 64.765 43.8682Z" fill="black"/>
<path d="M95.5034 36.3407V37.9733C95.1277 37.4577 94.6154 37.0109 93.9665 36.6672C93.3347 36.3235 92.6003 36.1516 91.7465 36.1516C90.7731 36.1516 89.9022 36.3922 89.0996 36.8734C88.3141 37.3546 87.6993 38.0421 87.2382 38.9357C86.7943 39.8294 86.5552 40.8605 86.5552 42.012C86.5552 43.1806 86.7772 44.2118 87.2382 45.1226C87.6993 46.0163 88.3312 46.7037 89.0996 47.2021C89.8851 47.7005 90.7731 47.9411 91.7294 47.9411C92.5833 47.9411 93.3176 47.7692 93.9665 47.4255C94.6154 47.0646 95.1277 46.6178 95.5034 46.085V47.7521H98.3894V36.3235H95.5034V36.3407ZM95.0936 43.8681C94.8203 44.3664 94.4446 44.7445 93.9836 45.0195C93.5225 45.2773 93.0273 45.4148 92.4808 45.4148C91.9685 45.4148 91.4733 45.2773 91.0122 45.0023C90.5682 44.7273 90.1925 44.3321 89.9022 43.8337C89.629 43.3181 89.4924 42.6994 89.4924 42.012C89.4924 41.3245 89.629 40.7402 89.9022 40.2418C90.1925 39.7263 90.5511 39.3482 91.0122 39.0904C91.4562 38.8326 91.9514 38.6951 92.4808 38.6951C93.0102 38.6951 93.5054 38.8326 93.9836 39.1076C94.4446 39.3654 94.8203 39.7606 95.0936 40.259C95.3668 40.7574 95.5034 41.3589 95.5034 42.0464C95.5034 42.751 95.3668 43.3525 95.0936 43.8681Z" fill="black"/>
<path d="M107.081 36.1692C108.43 36.1692 109.523 36.5988 110.36 37.4753C111.197 38.3346 111.606 39.5204 111.606 41.0672V47.7696H108.738V41.4624C108.738 40.5516 108.516 39.8641 108.054 39.3829C107.61 38.8846 106.996 38.6439 106.21 38.6439C105.425 38.6439 104.793 38.8846 104.332 39.3829C103.888 39.8641 103.649 40.5516 103.649 41.4624V47.7696H100.78V36.341H103.649V37.7675C104.024 37.2691 104.52 36.891 105.1 36.616C105.715 36.3067 106.364 36.1692 107.081 36.1692Z" fill="black"/>
<path d="M127.795 33.3682V35.6883H123.987V47.7527H121.118V35.6883H117.31V33.3682H127.795Z" fill="black"/>
<path d="M141.064 36.1692C142.413 36.1692 143.506 36.5988 144.343 37.4753C145.18 38.3346 145.589 39.5204 145.589 41.0672V47.7696H142.72V41.4624C142.72 40.5516 142.498 39.8641 142.037 39.3829C141.593 38.8846 140.979 38.6439 140.193 38.6439C139.408 38.6439 138.776 38.8846 138.315 39.3829C137.871 39.8641 137.632 40.5516 137.632 41.4624V47.7696H134.763V36.341H137.632V37.7675C138.007 37.2691 138.503 36.891 139.083 36.616C139.698 36.3067 140.347 36.1692 141.064 36.1692Z" fill="black"/>
<path d="M156.108 36.3407V37.9733C155.733 37.4406 155.237 37.0109 154.589 36.6672C153.94 36.3235 153.205 36.1516 152.352 36.1516C151.378 36.1516 150.507 36.3922 149.705 36.8734C148.919 37.3546 148.304 38.0421 147.843 38.9357C147.399 39.8294 147.16 40.8605 147.16 42.012C147.16 43.1806 147.382 44.2118 147.843 45.1226C148.304 46.0163 148.936 46.7037 149.722 47.2021C150.507 47.7005 151.395 47.9411 152.352 47.9411C153.188 47.9411 153.923 47.7692 154.571 47.4083C155.22 47.0474 155.733 46.6006 156.108 46.0678V47.838C156.108 48.8519 155.852 49.6081 155.323 50.1065C154.811 50.6221 154.127 50.8627 153.291 50.8627C153.222 50.8627 153.154 50.8627 153.103 50.8627V53.3718C153.188 53.3718 153.291 53.3718 153.376 53.3718C154.571 53.3718 155.596 53.1312 156.45 52.6328C157.304 52.1516 157.936 51.4986 158.363 50.6565C158.789 49.8315 158.994 48.8863 158.994 47.838V36.3235H156.108V36.3407ZM155.699 43.8681C155.425 44.3664 155.05 44.7445 154.589 45.0195C154.127 45.2773 153.632 45.4148 153.086 45.4148C152.574 45.4148 152.078 45.2773 151.617 45.0023C151.173 44.7273 150.798 44.3321 150.507 43.8337C150.234 43.3181 150.097 42.6994 150.097 42.012C150.097 41.3245 150.234 40.7402 150.507 40.2418C150.798 39.7263 151.156 39.3482 151.617 39.0904C152.061 38.8326 152.556 38.6951 153.086 38.6951C153.615 38.6951 154.11 38.8326 154.589 39.1076C155.05 39.3654 155.425 39.7606 155.699 40.259C155.972 40.7574 156.108 41.3589 156.108 42.0464C156.108 42.751 155.972 43.3525 155.699 43.8681Z" fill="black"/>
<path d="M169.583 36.3407V37.9733C169.207 37.4405 168.712 37.0109 168.063 36.6672C167.414 36.3235 166.679 36.1516 165.826 36.1516C164.852 36.1516 163.981 36.3922 163.179 36.8734C162.393 37.3546 161.778 38.0421 161.317 38.9357C160.873 39.8294 160.634 40.8605 160.634 42.012C160.634 43.1806 160.856 44.2118 161.317 45.1226C161.778 46.0163 162.41 46.7037 163.196 47.2021C163.981 47.7005 164.869 47.9411 165.826 47.9411C166.662 47.9411 167.397 47.7692 168.046 47.4083C168.695 47.0474 169.207 46.6006 169.583 46.0678V47.838C169.583 48.8519 169.326 49.6081 168.797 50.1065C168.285 50.6221 167.602 50.8627 166.765 50.8627C166.697 50.8627 166.628 50.8627 166.543 50.8627V53.3718C166.645 53.3718 166.731 53.389 166.833 53.389C168.029 53.389 169.053 53.1484 169.907 52.65C170.761 52.1688 171.393 51.5157 171.82 50.6736C172.246 49.8487 172.451 48.9035 172.451 47.8552V36.3407H169.583ZM169.173 43.8681C168.899 44.3664 168.524 44.7445 168.063 45.0195C167.602 45.2773 167.106 45.4148 166.56 45.4148C166.048 45.4148 165.552 45.2773 165.091 45.0023C164.647 44.7273 164.272 44.3321 163.981 43.8337C163.708 43.3181 163.571 42.6994 163.571 42.012C163.571 41.3245 163.708 40.7402 163.981 40.2418C164.272 39.7263 164.63 39.3482 165.091 39.0904C165.552 38.8326 166.031 38.6951 166.56 38.6951C167.089 38.6951 167.585 38.8326 168.063 39.1076C168.524 39.3654 168.899 39.7606 169.173 40.259C169.446 40.7574 169.583 41.3589 169.583 42.0464C169.583 42.751 169.446 43.3525 169.173 43.8681Z" fill="black"/>
<path fill-rule="evenodd" clip-rule="evenodd" d="M51.3423 36.1353H54.2112V36.7707L51.3423 38.9871V36.1353ZM54.2112 38.9871V47.7693H51.3423V38.9871H54.2112Z" fill="black"/>
<path fill-rule="evenodd" clip-rule="evenodd" d="M70.4688 36.1353H73.3376V36.7707L70.4688 38.9871V36.1353ZM73.3376 38.9871V47.7693H70.4688V38.9871H73.3376Z" fill="black"/>
<path fill-rule="evenodd" clip-rule="evenodd" d="M129.554 36.1353H132.423V36.7707L129.554 38.9871V36.1353ZM132.423 38.9871V47.7693H129.554V38.9871H132.423Z" fill="black"/>
<path fill-rule="evenodd" clip-rule="evenodd" d="M174.466 36.1516H177.335V47.769H174.466V38.9871H177.335V36.7707L174.466 38.9871V36.1516Z" fill="black"/>
<path d="M17.3766 45.5528C16.6423 45.5528 16.0275 45.3122 15.5152 44.8482C15.0029 44.3842 14.7297 43.7311 14.6614 42.9062H22.9607C23.0119 42.5797 23.046 42.2016 23.046 41.7891C23.046 40.6721 22.807 39.6925 22.3288 38.8332C21.8678 37.9739 21.2018 37.3036 20.3479 36.8396C19.4941 36.3756 18.5378 36.135 17.4619 36.135C16.3349 36.135 15.3444 36.3756 14.4906 36.8568C13.6367 37.338 12.9537 38.0255 12.4755 38.9191C11.9974 39.8128 11.7583 40.8439 11.7583 42.0298C11.7583 43.1984 11.9974 44.2295 12.4755 45.1232C12.9707 46.0169 13.6367 46.7043 14.5077 47.2027C15.3615 47.6667 16.3178 47.9073 17.3936 47.9245V45.5528H17.3766ZM15.5664 39.1769C16.0616 38.7301 16.6593 38.5238 17.3766 38.5238C18.1279 38.5238 18.7598 38.7473 19.2892 39.2113C19.8015 39.6581 20.0747 40.2424 20.0918 40.9814H14.6955C14.798 40.2081 15.0883 39.6065 15.5664 39.1769Z" fill="black"/>
<rect x="17.3667" y="45.5527" width="4.36768" height="2.37183" fill="black"/>
</svg>
